<svg xmlns="http://www.w3.org/2000/svg" viewBox="0 0 200 200">
  <rect width="200" height="200" fill="#EA4335" rx="10" ry="10"/>
  <g fill="white">
    <!-- 网络节点和连接线 -->
    <!-- 中心节点 -->
    <circle cx="100" cy="100" r="20"/>
    
    <!-- 周围节点 -->
    <circle cx="50" cy="60" r="15"/>
    <circle cx="150" cy="60" r="15"/>
    <circle cx="50" cy="140" r="15"/>
    <circle cx="150" cy="140" r="15"/>
    
    <!-- 连接线 -->
    <line x1="100" y1="100" x2="50" y2="60" stroke="white" stroke-width="3"/>
    <line x1="100" y1="100" x2="150" y2="60" stroke="white" stroke-width="3"/>
    <line x1="100" y1="100" x2="50" y2="140" stroke="white" stroke-width="3"/>
    <line x1="100" y1="100" x2="150" y2="140" stroke="white" stroke-width="3"/>
    
    <!-- 数据包 -->
    <rect x="70" y="75" width="10" height="10" fill="#EA4335" transform="rotate(45, 75, 80)"/>
    <rect x="125" y="75" width="10" height="10" fill="#EA4335" transform="rotate(45, 130, 80)"/>
    <rect x="70" y="120" width="10" height="10" fill="#EA4335" transform="rotate(45, 75, 125)"/>
    <rect x="125" y="120" width="10" height="10" fill="#EA4335" transform="rotate(45, 130, 125)"/>
  </g>
</svg>