<svg xmlns="http://www.w3.org/2000/svg" viewBox="0 0 200 200">
  <rect width="200" height="200" fill="#00ACC1" rx="10" ry="10"/>
  <g fill="white">
    <!-- 进程图形 - CPU和进程表示 -->
    
    <!-- CPU图形 -->
    <rect x="70" y="70" width="60" height="60" rx="5" ry="5" fill="white"/>
    
    <!-- CPU内部网格 -->
    <line x1="70" y1="85" x2="130" y2="85" stroke="#00ACC1" stroke-width="2"/>
    <line x1="70" y1="100" x2="130" y2="100" stroke="#00ACC1" stroke-width="2"/>
    <line x1="70" y1="115" x2="130" y2="115" stroke="#00ACC1" stroke-width="2"/>
    
    <line x1="85" y1="70" x2="85" y2="130" stroke="#00ACC1" stroke-width="2"/>
    <line x1="100" y1="70" x2="100" y2="130" stroke="#00ACC1" stroke-width="2"/>
    <line x1="115" y1="70" x2="115" y2="130" stroke="#00ACC1" stroke-width="2"/>
    
    <!-- 进程图形 - 周围的小方块代表进程 -->
    <rect x="40" y="40" width="20" height="20" rx="3" ry="3" fill="white"/>
    <rect x="140" y="40" width="20" height="20" rx="3" ry="3" fill="white"/>
    <rect x="40" y="140" width="20" height="20" rx="3" ry="3" fill="white"/>
    <rect x="140" y="140" width="20" height="20" rx="3" ry="3" fill="white"/>
    
    <!-- 连接线 - 表示进程通信 -->
    <line x1="60" y1="50" x2="70" y2="70" stroke="white" stroke-width="2"/>
    <line x1="140" y1="50" x2="130" y2="70" stroke="white" stroke-width="2"/>
    <line x1="60" y1="150" x2="70" y2="130" stroke="white" stroke-width="2"/>
    <line x1="140" y1="150" x2="130" y2="130" stroke="white" stroke-width="2"/>
    
    <!-- 进程ID标签 -->
    <text x="45" y="55" font-family="Arial" font-size="10" fill="#00ACC1">P1</text>
    <text x="145" y="55" font-family="Arial" font-size="10" fill="#00ACC1">P2</text>
    <text x="45" y="155" font-family="Arial" font-size="10" fill="#00ACC1">P3</text>
    <text x="145" y="155" font-family="Arial" font-size="10" fill="#00ACC1">P4</text>
  </g>
</svg>